Patient4_TMGait_0pt3_03_left_13_GRF.mot
version=1
nRows=58
nColumns=19
inDegrees=no
endheader
time	F1x	F1y	F1z	M1x	M1y	M1z	F2x	F2y	F2z	M2x	M2y	M2z	EC1x	EC1y	EC1z	EC2x	EC2y	EC2z
23.69	-1.1845	0.16247	-3.9982	0.65413	3.3123	0.84641	-20.4707	750.3195	-53.4489	275.026	62.7687	753.576	-0.0592	0.0182	-0.0073	-0.0462	0.0165	0.9585
23.7079	-0.81623	0.23018	-2.686	0.41559	2.2098	0.73684	-19.0738	753.9117	-53.8969	276.0436	62.3773	755.5385	-0.0592	0.0182	-0.0073	-0.0462	0.0165	0.9585
23.7257	-0.49133	0.29946	-1.5624	0.20176	1.262	0.66557	-17.4774	760.2339	-54.3524	278.0129	61.8679	759.6741	-0.0592	0.0182	-0.0073	-0.0462	0.0165	0.9585
23.7436	-0.23623	0.36702	-0.70203	0.027936	0.53173	0.6344	-15.7512	769.649	-54.7392	281.1079	61.205	766.3597	-0.0592	0.0182	-0.0073	-0.0462	0.0165	0.9585
23.7614	-0.057609	0.42755	-0.10576	-0.10175	0.021941	0.63848	-13.9815	781.9994	-54.9848	285.3139	60.3614	775.4831	-0.0592	0.0182	-0.0073	-0.0462	0.0165	0.9585
23.7793	0.050953	0.47132	0.26709	-0.18814	-0.29805	0.65937	-12.2406	796.5799	-55.0278	290.4081	59.3121	786.4038	-0.0592	0.0182	-0.0073	-0.0462	0.0165	0.9585
23.7971	0.10091	0.48273	0.47186	-0.23255	-0.47486	0.66832	-10.5552	812.2048	-54.813	295.9824	58.0204	798.015	-0.0592	0.0182	-0.0073	-0.0462	0.0165	0.9585
23.815	0.10733	0.43869	0.56338	-0.23378	-0.55712	0.63517	-8.913	827.3442	-54.2955	301.4897	56.446	808.877	-0.0592	0.0182	-0.0073	-0.0462	0.0165	0.9585
23.8329	0.083752	0.29893	0.58922	-0.18546	-0.58665	0.50977	-7.2653	840.3062	-53.4562	306.3095	54.5571	817.3943	-0.0592	0.0182	-0.0073	-0.0462	0.0165	0.9585
23.8507	0.038164	0.011081	0.58201	-0.076983	-0.5932	0.23082	-5.5345	849.4617	-52.305	309.8336	52.3361	822.038	-0.0592	0.0182	-0.0073	-0.0462	0.0165	0.9585
23.8686	-0.022172	-0.47656	0.55997	0.10523	-0.59168	-0.25818	-3.6328	853.4573	-50.8728	311.5465	49.7825	821.5507	-0.0592	0.0182	-0.0073	-0.0462	0.0165	0.9585
23.8864	-0.091034	-1.2036	0.52958	0.37376	-0.58482	-1.0003	-1.4798	851.3876	-49.211	311.0927	46.9186	815.1199	-0.0592	0.0182	-0.0073	-0.0462	0.0165	0.9585
23.9043	-0.16078	-2.1854	0.49038	0.73422	-0.56776	-2.0172	0.9903	842.9418	-47.392	308.3324	43.7919	802.5181	-0.0592	0.0182	-0.0073	-0.0462	0.0165	0.9585
23.9221	-0.21663	-3.3878	0.43418	1.175	-0.52453	-3.2749	3.807	828.4896	-45.5029	303.3749	40.4764	784.1814	-0.0592	0.0182	-0.0073	-0.0462	0.0165	0.9585
23.94	-0.23338	-4.6944	0.34375	1.652	-0.4284	-4.6484	6.9489	809.0743	-43.6423	296.5785	37.0758	761.1897	-0.0592	0.0182	-0.0073	-0.0462	0.0165	0.9585
23.9579	-0.17228	-5.8668	0.19266	2.0746	-0.23787	-5.8887	10.3606	786.3292	-41.9128	288.5211	33.7129	735.1693	-0.0592	0.0182	-0.0073	-0.0462	0.0165	0.9585
23.9757	0.021776	-6.4889	-0.048836	2.2881	0.096854	-6.5623	13.9657	762.2953	-40.4074	279.9373	30.5093	708.1106	-0.0592	0.0182	-0.0073	-0.0462	0.0165	0.9585
23.9936	0.4132	-5.921	-0.4092	2.0598	0.62863	-6.0049	17.6573	739.093	-39.1996	271.596	27.5814	682.0586	-0.0592	0.0182	-0.0073	-0.0462	0.0165	0.9585
24.0114	1.0698	-3.2917	-0.90306	1.0723	1.3962	-3.3095	21.2924	718.527	-38.3433	264.1571	25.0389	658.7467	-0.0592	0.0182	-0.0073	-0.0462	0.0165	0.9585
24.0293	2.0402	2.4787	-1.5165	-1.0661	2.4018	2.6544	24.6931	701.7489	-37.8706	258.0466	22.9799	639.2977	-0.0592	0.0182	-0.0073	-0.0462	0.0165	0.9585
24.0471	3.3328	12.5808	-2.1904	-4.7847	3.5823	13.1422	27.6505	689.0344	-37.7796	253.3701	21.481	624.0292	-0.0592	0.0182	-0.0073	-0.0462	0.0165	0.9585
24.065	4.885	28.0942	-2.8022	-10.4661	4.7761	29.2969	29.9457	679.6993	-38.0186	249.8788	20.5801	612.381	-0.0592	0.0182	-0.0073	-0.0462	0.0165	0.9585
24.0829	6.5017	49.6198	-3.1381	-18.3108	5.6771	51.7708	31.3669	672.2041	-38.4772	247.0079	20.2597	603.011	-0.0592	0.0182	-0.0073	-0.0462	0.0165	0.9585
24.1007	7.717	76.8259	-2.8958	-28.1711	5.7929	80.2521	31.7249	664.4911	-38.9977	244.0024	20.4504	594.0975	-0.0592	0.0182	-0.0073	-0.0462	0.0165	0.9585
24.1186	7.9181	108.1059	-1.7231	-39.4323	4.5313	113.0976	30.8907	654.4745	-39.4156	240.0999	21.0533	583.7727	-0.0592	0.0182	-0.0073	-0.0462	0.0165	0.9585
24.1364	6.9396	140.8152	0.62871	-51.1131	1.5789	147.5349	28.8797	640.5964	-39.6075	234.7379	21.954	570.5929	-0.0592	0.0182	-0.0073	-0.0462	0.0165	0.9585
24.1543	5.0571	172.611	3.9902	-62.3753	-2.7722	181.0348	25.9273	622.2724	-39.5256	227.7185	23.0215	553.9132	-0.0592	0.0182	-0.0073	-0.0462	0.0165	0.9585
24.1721	2.5573	202.9304	7.957	-73.0369	-7.9789	212.9425	22.4866	599.9517	-39.19	219.2282	24.0961	533.9446	-0.0592	0.0182	-0.0073	-0.0462	0.0165	0.9585
24.19	-0.39906	232.7062	12.1631	-83.4536	-13.5927	244.2171	19.1015	574.7186	-38.6342	209.6892	24.9953	511.4451	-0.0592	0.0182	-0.0073	-0.0462	0.0165	0.9585
24.2079	-3.6871	263.1075	16.3169	-94.0619	-19.2581	276.0878	16.2176	547.709	-37.8642	199.5397	25.5485	487.2691	-0.0592	0.0182	-0.0073	-0.0462	0.0165	0.9585
24.2257	-7.1586	294.6331	20.1997	-105.0449	-24.6899	309.0902	14.0596	519.7153	-36.8743	189.0861	25.6563	462.0448	-0.0592	0.0182	-0.0073	-0.0462	0.0165	0.9585
24.2436	-10.6289	326.8575	23.6742	-116.2399	-29.6765	342.8062	12.6223	491.126	-35.6699	178.4779	25.3142	436.1187	-0.0592	0.0182	-0.0073	-0.0462	0.0165	0.9585
24.2614	-13.8793	358.5911	26.6827	-127.2009	-34.0769	376.024	11.7362	462.0961	-34.2749	167.7689	24.5942	409.6732	-0.0592	0.0182	-0.0073	-0.0462	0.0165	0.9585
24.2793	-16.701	388.283	29.224	-137.3537	-37.8119	407.1448	11.17	432.792	-32.7313	157.0106	23.6095	382.917	-0.0592	0.0182	-0.0073	-0.0462	0.0165	0.9585
24.2971	-18.9413	414.5717	31.3135	-146.2037	-40.8362	434.7445	10.7197	403.5449	-31.0873	146.3124	22.4757	356.2052	-0.0592	0.0182	-0.0073	-0.0462	0.0165	0.9585
24.315	-20.5041	436.745	32.9541	-153.5012	-43.1139	458.0449	10.2627	374.8428	-29.3872	135.842	21.2793	330.0256	-0.0592	0.0182	-0.0073	-0.0462	0.0165	0.9585
24.3329	-21.352	454.8403	34.1733	-159.2695	-44.6595	477.0332	9.7678	347.2396	-27.6634	125.7938	20.0657	304.9091	-0.0592	0.0182	-0.0073	-0.0462	0.0165	0.9585
24.3507	-21.5461	469.4563	35.0538	-163.735	-45.5787	492.2775	9.2758	321.2497	-25.9386	116.3496	18.8448	281.3264	-0.0592	0.0182	-0.0073	-0.0462	0.0165	0.9585
24.3686	-21.222	481.552	35.7382	-167.2536	-46.0651	504.7216	8.8692	297.2335	-24.228	107.6368	17.6024	259.5932	-0.0592	0.0182	-0.0073	-0.0462	0.0165	0.9585
24.3864	-20.5428	492.2694	36.4041	-170.2453	-46.3583	515.5009	8.6218	275.3213	-22.5402	99.6994	16.32	239.8139	-0.0592	0.0182	-0.0073	-0.0462	0.0165	0.9585
24.4043	-19.6576	502.7449	37.2119	-173.1295	-46.6777	525.7442	8.5627	255.3951	-20.8897	92.4913	14.9968	221.8744	-0.0592	0.0182	-0.0073	-0.0462	0.0165	0.9585
24.4221	-18.6629	513.9676	38.2702	-176.2773	-47.1688	536.4151	8.6692	237.1181	-19.2963	85.8886	13.6533	205.474	-0.0592	0.0182	-0.0073	-0.0462	0.0165	0.9585
24.44	-17.5938	526.688	39.6254	-179.9802	-47.8907	548.2333	8.8611	219.9979	-17.7705	79.7101	12.3239	190.1828	-0.0592	0.0182	-0.0073	-0.0462	0.0165	0.9585
24.4579	-16.455	541.3468	41.2608	-184.4212	-48.8262	561.6158	9.0181	203.4689	-16.305	73.7481	11.0458	175.5149	-0.0592	0.0182	-0.0073	-0.0462	0.0165	0.9585
24.4757	-15.2375	558.0649	43.1159	-189.6644	-49.9102	576.6732	9.0022	187.0049	-14.8843	67.8097	9.858	161.0209	-0.0592	0.0182	-0.0073	-0.0462	0.0165	0.9585
24.4936	-13.9374	576.7494	45.1184	-195.6874	-51.0677	593.3113	8.6857	170.2349	-13.5008	61.7587	8.8036	146.3823	-0.0592	0.0182	-0.0073	-0.0462	0.0165	0.9585
24.5114	-12.5778	597.2219	47.2076	-202.4265	-52.2448	611.3755	7.9852	153.0156	-12.1541	55.5406	7.9136	131.4678	-0.0592	0.0182	-0.0073	-0.0462	0.0165	0.9585
24.5293	-11.2126	619.32	49.338	-209.8101	-53.4175	630.7513	6.8852	135.4506	-10.8497	49.1893	7.1976	116.3484	-0.0592	0.0182	-0.0073	-0.0462	0.0165	0.9585
24.5471	-9.9339	642.9227	51.4775	-217.7676	-54.5928	651.3889	5.4418	117.8383	-9.6022	42.8106	6.6461	101.2512	-0.0592	0.0182	-0.0073	-0.0462	0.0165	0.9585
24.565	-8.8701	667.8879	53.6115	-226.215	-55.8081	673.2283	3.7676	100.5686	-8.4311	36.5465	6.2326	86.4809	-0.0592	0.0182	-0.0073	-0.0462	0.0165	0.9585
24.5829	-8.1465	693.9304	55.7269	-235.0239	-57.1006	696.0512	2.003	84.0197	-7.3417	30.5357	5.91	72.3382	-0.0592	0.0182	-0.0073	-0.0462	0.0165	0.9585
24.6007	-7.8121	720.5939	57.7883	-244.0244	-58.4561	719.4303	0.2848	68.4998	-6.323	24.8932	5.622	59.0644	-0.0592	0.0182	-0.0073	-0.0462	0.0165	0.9585
24.6186	-7.8249	747.3438	59.723	-253.0397	-59.7899	742.8201	-1.2668	54.2475	-5.3614	19.7101	5.3185	46.8553	-0.0592	0.0182	-0.0073	-0.0462	0.0165	0.9585
24.6364	-8.0739	773.5953	61.4444	-261.8899	-60.9808	765.5863	-2.5285	41.4466	-4.4457	15.0568	4.9507	35.8713	-0.0592	0.0182	-0.0073	-0.0462	0.0165	0.9585
24.6543	-8.3953	798.678	62.8807	-270.3691	-61.9014	786.9892	-3.3815	30.2388	-3.5659	10.9864	4.4711	26.2431	-0.0592	0.0182	-0.0073	-0.0462	0.0165	0.9585
24.6721	-8.6036	821.7594	63.9873	-278.2134	-62.4439	806.1385	-3.7355	20.7365	-2.7231	7.5397	3.8493	18.0762	-0.0592	0.0182	-0.0073	-0.0462	0.0165	0.9585
24.69	-8.5295	841.7545	64.7469	-285.0621	-62.533	821.9381	-3.5636	13.0247	-1.9399	4.7476	3.0924	11.4484	-0.0592	0.0182	-0.0073	-0.0462	0.0165	0.9585
24.7079	-8.0474	857.3003	65.1657	-290.4507	-62.1299	833.0711	-2.9573	7.1423	-1.2596	2.6225	2.2694	6.3921	-0.0592	0.0182	-0.0073	-0.0462	0.0165	0.9585
